<svg width="50" height="50" viewBox="0 0 50 50" fill="none" xmlns="http://www.w3.org/2000/svg">
<path d="M36.7783 4.59936L48.5566 25L36.7783 45.4006L13.2217 45.4006L1.44337 25L13.2217 4.59936L36.7783 4.59936Z" stroke="#E65F78" stroke-width="2.5"/>
<mask id="path-2-outside-1_202_10" maskUnits="userSpaceOnUse" x="13" y="17" width="22" height="16" fill="black">
<rect fill="white" x="13" y="17" width="22" height="16"/>
<path d="M20.5966 18.9091H22.1818V28.267C22.1818 29.1023 22.0284 29.8118 21.7216 30.3956C21.4148 30.9794 20.9822 31.4226 20.424 31.7251C19.8658 32.0277 19.2074 32.179 18.4489 32.179C17.733 32.179 17.0959 32.049 16.5376 31.7891C15.9794 31.5249 15.5405 31.1499 15.2209 30.6641C14.9013 30.1783 14.7415 29.6009 14.7415 28.9318H16.3011C16.3011 29.3026 16.3928 29.6264 16.576 29.9034C16.7635 30.1761 17.0192 30.3892 17.343 30.5426C17.6669 30.696 18.0355 30.7727 18.4489 30.7727C18.9048 30.7727 19.2926 30.6768 19.6122 30.4851C19.9318 30.2933 20.1747 30.0121 20.3409 29.6413C20.5114 29.2663 20.5966 28.8082 20.5966 28.267V18.9091ZM32.5178 22.1818C32.4411 21.5341 32.13 21.0312 31.5845 20.6733C31.0391 20.3153 30.37 20.1364 29.5774 20.1364C28.9979 20.1364 28.4908 20.2301 28.0561 20.4176C27.6257 20.6051 27.2891 20.8629 27.0462 21.1911C26.8075 21.5192 26.6882 21.892 26.6882 22.3097C26.6882 22.6591 26.7713 22.9595 26.9375 23.2109C27.108 23.4581 27.3253 23.6648 27.5895 23.831C27.8537 23.9929 28.1307 24.1271 28.4205 24.2337C28.7102 24.3359 28.9766 24.419 29.2195 24.483L30.549 24.8409C30.8899 24.9304 31.2692 25.054 31.6868 25.2116C32.1087 25.3693 32.5114 25.5845 32.8949 25.8572C33.2827 26.1257 33.6023 26.4709 33.8537 26.8928C34.1051 27.3146 34.2308 27.8324 34.2308 28.446C34.2308 29.1534 34.0455 29.7926 33.6747 30.3636C33.3082 30.9347 32.7713 31.3885 32.0639 31.7251C31.3608 32.0618 30.5064 32.2301 29.5007 32.2301C28.5632 32.2301 27.7514 32.0788 27.0653 31.7763C26.3835 31.4737 25.8466 31.0518 25.4545 30.5107C25.0668 29.9695 24.8473 29.3409 24.7962 28.625H26.4325C26.4751 29.1193 26.6413 29.5284 26.9311 29.8523C27.2251 30.1719 27.5959 30.4105 28.0433 30.5682C28.495 30.7216 28.9808 30.7983 29.5007 30.7983C30.1058 30.7983 30.6491 30.7003 31.1307 30.5043C31.6122 30.304 31.9936 30.027 32.2749 29.6733C32.5561 29.3153 32.6967 28.8977 32.6967 28.4205C32.6967 27.9858 32.5753 27.6321 32.3324 27.3594C32.0895 27.0866 31.7699 26.8651 31.3736 26.6946C30.9773 26.5241 30.549 26.375 30.0888 26.2472L28.478 25.7869C27.4553 25.4929 26.6456 25.0732 26.049 24.5277C25.4524 23.9822 25.1541 23.2685 25.1541 22.3864C25.1541 21.6534 25.3523 21.0142 25.7486 20.4688C26.1491 19.919 26.6861 19.4929 27.3594 19.1903C28.0369 18.8835 28.7933 18.7301 29.6286 18.7301C30.4723 18.7301 31.2223 18.8814 31.8786 19.1839C32.5348 19.4822 33.0547 19.8913 33.4382 20.4112C33.826 20.9311 34.0305 21.5213 34.0518 22.1818H32.5178Z"/>
</mask>
<path d="M20.5966 18.9091H22.1818V28.267C22.1818 29.1023 22.0284 29.8118 21.7216 30.3956C21.4148 30.9794 20.9822 31.4226 20.424 31.7251C19.8658 32.0277 19.2074 32.179 18.4489 32.179C17.733 32.179 17.0959 32.049 16.5376 31.7891C15.9794 31.5249 15.5405 31.1499 15.2209 30.6641C14.9013 30.1783 14.7415 29.6009 14.7415 28.9318H16.3011C16.3011 29.3026 16.3928 29.6264 16.576 29.9034C16.7635 30.1761 17.0192 30.3892 17.343 30.5426C17.6669 30.696 18.0355 30.7727 18.4489 30.7727C18.9048 30.7727 19.2926 30.6768 19.6122 30.4851C19.9318 30.2933 20.1747 30.0121 20.3409 29.6413C20.5114 29.2663 20.5966 28.8082 20.5966 28.267V18.9091ZM32.5178 22.1818C32.4411 21.5341 32.13 21.0312 31.5845 20.6733C31.0391 20.3153 30.37 20.1364 29.5774 20.1364C28.9979 20.1364 28.4908 20.2301 28.0561 20.4176C27.6257 20.6051 27.2891 20.8629 27.0462 21.1911C26.8075 21.5192 26.6882 21.892 26.6882 22.3097C26.6882 22.6591 26.7713 22.9595 26.9375 23.2109C27.108 23.4581 27.3253 23.6648 27.5895 23.831C27.8537 23.9929 28.1307 24.1271 28.4205 24.2337C28.7102 24.3359 28.9766 24.419 29.2195 24.483L30.549 24.8409C30.8899 24.9304 31.2692 25.054 31.6868 25.2116C32.1087 25.3693 32.5114 25.5845 32.8949 25.8572C33.2827 26.1257 33.6023 26.4709 33.8537 26.8928C34.1051 27.3146 34.2308 27.8324 34.2308 28.446C34.2308 29.1534 34.0455 29.7926 33.6747 30.3636C33.3082 30.9347 32.7713 31.3885 32.0639 31.7251C31.3608 32.0618 30.5064 32.2301 29.5007 32.2301C28.5632 32.2301 27.7514 32.0788 27.0653 31.7763C26.3835 31.4737 25.8466 31.0518 25.4545 30.5107C25.0668 29.9695 24.8473 29.3409 24.7962 28.625H26.4325C26.4751 29.1193 26.6413 29.5284 26.9311 29.8523C27.2251 30.1719 27.5959 30.4105 28.0433 30.5682C28.495 30.7216 28.9808 30.7983 29.5007 30.7983C30.1058 30.7983 30.6491 30.7003 31.1307 30.5043C31.6122 30.304 31.9936 30.027 32.2749 29.6733C32.5561 29.3153 32.6967 28.8977 32.6967 28.4205C32.6967 27.9858 32.5753 27.6321 32.3324 27.3594C32.0895 27.0866 31.7699 26.8651 31.3736 26.6946C30.9773 26.5241 30.549 26.375 30.0888 26.2472L28.478 25.7869C27.4553 25.4929 26.6456 25.0732 26.049 24.5277C25.4524 23.9822 25.1541 23.2685 25.1541 22.3864C25.1541 21.6534 25.3523 21.0142 25.7486 20.4688C26.1491 19.919 26.6861 19.4929 27.3594 19.1903C28.0369 18.8835 28.7933 18.7301 29.6286 18.7301C30.4723 18.7301 31.2223 18.8814 31.8786 19.1839C32.5348 19.4822 33.0547 19.8913 33.4382 20.4112C33.826 20.9311 34.0305 21.5213 34.0518 22.1818H32.5178Z" fill="#E65F78"/>
<path d="M20.5966 18.9091V18.1591H19.8466V18.9091H20.5966ZM22.1818 18.9091H22.9318V18.1591H22.1818V18.9091ZM21.7216 30.3956L22.3855 30.7445L22.3855 30.7445L21.7216 30.3956ZM20.424 31.7251L20.7814 32.3845L20.7814 32.3845L20.424 31.7251ZM16.5376 31.7891L16.2168 32.467L16.221 32.469L16.5376 31.7891ZM15.2209 30.6641L14.5943 31.0763L14.5943 31.0763L15.2209 30.6641ZM14.7415 28.9318V28.1818H13.9915V28.9318H14.7415ZM16.3011 28.9318H17.0511V28.1818H16.3011V28.9318ZM16.576 29.9034L15.9504 30.3173L15.958 30.3283L16.576 29.9034ZM17.343 30.5426L17.6641 29.8648L17.6641 29.8648L17.343 30.5426ZM19.6122 30.4851L19.2263 29.842L19.2263 29.842L19.6122 30.4851ZM20.3409 29.6413L19.6581 29.331L19.6565 29.3345L20.3409 29.6413ZM20.5966 19.6591H22.1818V18.1591H20.5966V19.6591ZM21.4318 18.9091V28.267H22.9318V18.9091H21.4318ZM21.4318 28.267C21.4318 29.0123 21.2949 29.5954 21.0577 30.0467L22.3855 30.7445C22.7619 30.0282 22.9318 29.1922 22.9318 28.267H21.4318ZM21.0577 30.0467C20.8172 30.5043 20.4889 30.8369 20.0666 31.0658L20.7814 32.3845C21.4756 32.0083 22.0124 31.4545 22.3855 30.7445L21.0577 30.0467ZM20.0666 31.0658C19.6376 31.2983 19.1068 31.429 18.4489 31.429V32.929C19.308 32.929 20.0939 32.7571 20.7814 32.3845L20.0666 31.0658ZM18.4489 31.429C17.8246 31.429 17.2984 31.316 16.8542 31.1092L16.221 32.469C16.8933 32.782 17.6413 32.929 18.4489 32.929V31.429ZM16.8585 31.1112C16.4165 30.902 16.0867 30.6155 15.8474 30.2519L14.5943 31.0763C14.9943 31.6842 15.5423 32.1477 16.2168 32.467L16.8585 31.1112ZM15.8474 30.2519C15.62 29.9061 15.4915 29.477 15.4915 28.9318H13.9915C13.9915 29.7247 14.1826 30.4504 14.5943 31.0763L15.8474 30.2519ZM14.7415 29.6818H16.3011V28.1818H14.7415V29.6818ZM15.5511 28.9318C15.5511 29.432 15.6768 29.9035 15.9505 30.3172L17.2015 29.4896C17.1087 29.3494 17.0511 29.1731 17.0511 28.9318H15.5511ZM15.958 30.3283C16.2266 30.719 16.5888 31.0152 17.022 31.2204L17.6641 29.8648C17.4496 29.7632 17.3004 29.6333 17.194 29.4785L15.958 30.3283ZM17.022 31.2204C17.4605 31.4281 17.9415 31.5227 18.4489 31.5227V30.0227C18.1296 30.0227 17.8733 29.9639 17.6641 29.8648L17.022 31.2204ZM18.4489 31.5227C19.0105 31.5227 19.5384 31.404 19.9981 31.1282L19.2263 29.842C19.0468 29.9497 18.7992 30.0227 18.4489 30.0227V31.5227ZM19.9981 31.1282C20.4612 30.8504 20.8023 30.4456 21.0253 29.9481L19.6565 29.3345C19.5472 29.5785 19.4025 29.7363 19.2263 29.842L19.9981 31.1282ZM21.0237 29.9517C21.25 29.4537 21.3466 28.8832 21.3466 28.267H19.8466C19.8466 28.7333 19.7727 29.0789 19.6581 29.331L21.0237 29.9517ZM21.3466 28.267V18.9091H19.8466V28.267H21.3466ZM32.5178 22.1818L31.773 22.27L31.8513 22.9318H32.5178V22.1818ZM31.5845 20.6733L31.173 21.3003L31.173 21.3003L31.5845 20.6733ZM28.0561 20.4176L27.759 19.729L27.7566 19.73L28.0561 20.4176ZM27.0462 21.1911L26.4433 20.7448L26.4396 20.7499L27.0462 21.1911ZM26.9375 23.2109L26.3118 23.6245L26.3159 23.6307L26.3201 23.6367L26.9375 23.2109ZM27.5895 23.831L27.1901 24.4659L27.1976 24.4704L27.5895 23.831ZM28.4205 24.2337L28.1616 24.9377L28.1708 24.9409L28.4205 24.2337ZM29.2195 24.483L29.4144 23.7587L29.4103 23.7576L29.2195 24.483ZM30.549 24.8409L30.354 25.5651L30.3586 25.5663L30.549 24.8409ZM31.6868 25.2116L31.4219 25.9133L31.4242 25.9142L31.6868 25.2116ZM32.8949 25.8572L32.4602 26.4685L32.468 26.4739L32.8949 25.8572ZM33.8537 26.8928L34.498 26.5088L34.498 26.5088L33.8537 26.8928ZM33.6747 30.3636L33.0457 29.9552L33.0435 29.9585L33.6747 30.3636ZM32.0639 31.7251L31.7416 31.0479L31.74 31.0487L32.0639 31.7251ZM27.0653 31.7763L26.7611 32.4618L26.7627 32.4625L27.0653 31.7763ZM25.4545 30.5107L24.8449 30.9475L24.8472 30.9506L25.4545 30.5107ZM24.7962 28.625V27.875H23.9907L24.0481 28.6784L24.7962 28.625ZM26.4325 28.625L27.1798 28.5606L27.1207 27.875H26.4325V28.625ZM26.9311 29.8523L26.3721 30.3524L26.3792 30.3601L26.9311 29.8523ZM28.0433 30.5682L27.794 31.2756L27.8021 31.2783L28.0433 30.5682ZM31.1307 30.5043L31.4135 31.1989L31.4187 31.1968L31.1307 30.5043ZM32.2749 29.6733L32.8619 30.1401L32.8646 30.1367L32.2749 29.6733ZM32.3324 27.3594L32.8925 26.8606L32.8925 26.8606L32.3324 27.3594ZM31.3736 26.6946L31.0772 27.3836L31.0772 27.3836L31.3736 26.6946ZM30.0888 26.2472L29.8827 26.9683L29.888 26.9698L30.0888 26.2472ZM28.478 25.7869L28.2708 26.5077L28.2719 26.5081L28.478 25.7869ZM26.049 24.5277L25.5429 25.0812L25.5429 25.0812L26.049 24.5277ZM25.7486 20.4688L25.1424 20.0271L25.1418 20.0279L25.7486 20.4688ZM27.3594 19.1903L27.6668 19.8744L27.6688 19.8736L27.3594 19.1903ZM31.8786 19.1839L31.5645 19.8651L31.5682 19.8667L31.8786 19.1839ZM33.4382 20.4112L32.8347 20.8565L32.837 20.8596L33.4382 20.4112ZM34.0518 22.1818V22.9318H34.8264L34.8015 22.1576L34.0518 22.1818ZM33.2626 22.0936C33.1598 21.2258 32.7266 20.5257 31.996 20.0463L31.173 21.3003C31.5333 21.5368 31.7223 21.8424 31.773 22.27L33.2626 22.0936ZM31.996 20.0463C31.3043 19.5923 30.4845 19.3864 29.5774 19.3864V20.8864C30.2555 20.8864 30.7739 21.0384 31.173 21.3003L31.996 20.0463ZM29.5774 19.3864C28.918 19.3864 28.306 19.493 27.759 19.729L28.3532 21.1063C28.6755 20.9672 29.0777 20.8864 29.5774 20.8864V19.3864ZM27.7566 19.73C27.224 19.962 26.7755 20.2961 26.4434 20.7448L27.649 21.6373C27.8026 21.4298 28.0274 21.2482 28.3557 21.1052L27.7566 19.73ZM26.4396 20.7499C26.1049 21.2102 25.9382 21.7385 25.9382 22.3097H27.4382C27.4382 22.0456 27.5102 21.8282 27.6527 21.6322L26.4396 20.7499ZM25.9382 22.3097C25.9382 22.7821 26.0522 23.2318 26.3118 23.6245L27.5632 22.7974C27.4904 22.6872 27.4382 22.536 27.4382 22.3097H25.9382ZM26.3201 23.6367C26.5506 23.971 26.8433 24.2476 27.1902 24.4658L27.9888 23.1961C27.8073 23.0819 27.6653 22.9452 27.5549 22.7851L26.3201 23.6367ZM27.1976 24.4704C27.5038 24.6581 27.8253 24.8139 28.1617 24.9376L28.6793 23.5297C28.436 23.4403 28.2036 23.3277 27.9814 23.1915L27.1976 24.4704ZM28.1708 24.9409C28.4759 25.0486 28.7621 25.1381 29.0286 25.2083L29.4103 23.7576C29.191 23.6999 28.9446 23.6233 28.6701 23.5264L28.1708 24.9409ZM29.0245 25.2072L30.354 25.5651L30.744 24.1167L29.4144 23.7587L29.0245 25.2072ZM30.3586 25.5663C30.6687 25.6477 31.0226 25.7625 31.4219 25.9133L31.9517 24.51C31.5158 24.3454 31.1112 24.2131 30.7394 24.1155L30.3586 25.5663ZM31.4242 25.9142C31.7823 26.048 32.1275 26.2318 32.4602 26.4685L33.3295 25.246C32.8953 24.9372 32.435 24.6906 31.9494 24.5091L31.4242 25.9142ZM32.468 26.4739C32.7638 26.6787 33.0106 26.9432 33.2094 27.2767L34.498 26.5088C34.1939 25.9986 33.8015 25.5727 33.3218 25.2406L32.468 26.4739ZM33.2094 27.2767C33.3763 27.5568 33.4808 27.9341 33.4808 28.446H34.9808C34.9808 27.7306 34.8339 27.0725 34.498 26.5088L33.2094 27.2767ZM33.4808 28.446C33.4808 29.0144 33.3343 29.5107 33.0457 29.9552L34.3038 30.772C34.7566 30.0745 34.9808 29.2924 34.9808 28.446H33.4808ZM33.0435 29.9585C32.7637 30.3945 32.3426 30.7619 31.7416 31.0479L32.3862 32.4024C33.2 32.0151 33.8528 31.4748 34.3059 30.7687L33.0435 29.9585ZM31.74 31.0487C31.1629 31.325 30.4256 31.4801 29.5007 31.4801V32.9801C30.5871 32.9801 31.5587 32.7986 32.3878 32.4016L31.74 31.0487ZM29.5007 31.4801C28.6421 31.4801 27.938 31.3414 27.368 31.09L26.7627 32.4625C27.5648 32.8162 28.4843 32.9801 29.5007 32.9801V31.4801ZM27.3695 31.0907C26.7943 30.8355 26.3676 30.4926 26.0619 30.0707L24.8472 30.9506C25.3256 31.6111 25.9728 32.112 26.7611 32.4618L27.3695 31.0907ZM26.0642 30.0738C25.7634 29.654 25.5863 29.1605 25.5443 28.5716L24.0481 28.6784C24.1083 29.5213 24.3702 30.2849 24.8449 30.9475L26.0642 30.0738ZM24.7962 29.375H26.4325V27.875H24.7962V29.375ZM25.6853 28.6894C25.7398 29.3216 25.9591 29.8907 26.3722 30.3524L27.49 29.3522C27.3235 29.1661 27.2105 28.9171 27.1798 28.5606L25.6853 28.6894ZM26.3792 30.3601C26.7638 30.7781 27.2418 31.081 27.7941 31.2755L28.2926 29.8608C27.9499 29.7401 27.6865 29.5656 27.4831 29.3445L26.3792 30.3601ZM27.8021 31.2783C28.3382 31.4604 28.9061 31.5483 29.5007 31.5483V30.0483C29.0555 30.0483 28.6519 29.9828 28.2845 29.858L27.8021 31.2783ZM29.5007 31.5483C30.1871 31.5483 30.8287 31.437 31.4135 31.1989L30.8479 29.8096C30.4696 29.9636 30.0246 30.0483 29.5007 30.0483V31.5483ZM31.4187 31.1968C31.9992 30.9553 32.4902 30.6075 32.8619 30.1401L31.6878 29.2065C31.497 29.4465 31.2253 29.6526 30.8427 29.8118L31.4187 31.1968ZM32.8646 30.1367C33.255 29.6398 33.4467 29.057 33.4467 28.4205H31.9467C31.9467 28.7384 31.8573 28.9908 31.6851 29.2099L32.8646 30.1367ZM33.4467 28.4205C33.4467 27.8387 33.2802 27.2959 32.8925 26.8606L31.7723 27.8582C31.8704 27.9683 31.9467 28.1328 31.9467 28.4205H33.4467ZM32.8925 26.8606C32.5646 26.4924 32.1489 26.2116 31.6699 26.0056L31.0772 27.3836C31.3909 27.5185 31.6144 27.6809 31.7723 27.8582L32.8925 26.8606ZM31.6699 26.0056C31.2394 25.8205 30.7789 25.6605 30.2895 25.5245L29.888 26.9698C30.3191 27.0895 30.7151 27.2278 31.0772 27.3836L31.6699 26.0056ZM30.2948 25.526L28.684 25.0658L28.2719 26.5081L29.8827 26.9683L30.2948 25.526ZM28.6852 25.0661C27.7399 24.7944 27.0437 24.4209 26.5551 23.9742L25.5429 25.0812C26.2475 25.7254 27.1706 26.1914 28.2708 26.5077L28.6852 25.0661ZM26.5551 23.9742C26.1291 23.5847 25.9041 23.0794 25.9041 22.3864H24.4041C24.4041 23.4576 24.7758 24.3798 25.5429 25.0812L26.5551 23.9742ZM25.9041 22.3864C25.9041 21.7972 26.0603 21.3156 26.3553 20.9096L25.1418 20.0279C24.6442 20.7128 24.4041 21.5096 24.4041 22.3864H25.9041ZM26.3547 20.9104C26.672 20.475 27.102 20.1282 27.6668 19.8744L27.052 18.5062C26.2701 18.8576 25.6263 19.3631 25.1424 20.0271L26.3547 20.9104ZM27.6688 19.8736C28.2378 19.6159 28.8869 19.4801 29.6286 19.4801V17.9801C28.6998 17.9801 27.8361 18.1512 27.05 18.5071L27.6688 19.8736ZM29.6286 19.4801C30.3819 19.4801 31.0219 19.6149 31.5645 19.865L32.1926 18.5028C31.4227 18.1479 30.5627 17.9801 29.6286 17.9801V19.4801ZM31.5682 19.8667C32.1218 20.1184 32.5355 20.4509 32.8347 20.8565L34.0418 19.966C33.5739 19.3317 32.9478 18.8461 32.1889 18.5012L31.5682 19.8667ZM32.837 20.8596C33.1313 21.2542 33.2858 21.6957 33.3022 22.206L34.8015 22.1576C34.7753 21.347 34.5207 20.6081 34.0394 19.9628L32.837 20.8596ZM34.0518 21.4318H32.5178V22.9318H34.0518V21.4318Z" fill="#E65F78" mask="url(#path-2-outside-1_202_10)"/>
</svg>
